<svg width="320" height="150" viewBox="0 0 320 150" fill="none" xmlns="http://www.w3.org/2000/svg">
<g clip-path="url(#clip0_216_760)">
<path d="M0 12C0 5.37258 5.37258 0 12 0H307.333C313.961 0 319.333 5.37258 319.333 12V138C319.333 144.627 313.961 150 307.333 150H12C5.3726 150 0 144.627 0 138V12Z" fill="#D3A0FA"/>
<g clip-path="url(#clip1_216_760)">
<mask id="mask0_216_760" style="mask-type:luminance" maskUnits="userSpaceOnUse" x="199" y="0" width="151" height="150">
<path d="M349.5 150L349.5 0L199.5 -6.55671e-06L199.5 150L349.5 150Z" fill="white"/>
</mask>
<g mask="url(#mask0_216_760)">
<path fill-rule="evenodd" clip-rule="evenodd" d="M312.75 -1.60639e-06L312.75 20.625L312.75 21L312.754 21C312.954 29.7324 320.095 36.75 328.875 36.75L349.5 36.75L349.5 41.25L328.5 41.25C319.801 41.25 312.75 48.3015 312.75 57C312.75 65.6985 319.801 72.75 328.5 72.75L349.5 72.75L349.5 77.25L328.5 77.25C319.801 77.25 312.75 84.3015 312.75 93C312.75 101.698 319.801 108.75 328.5 108.75L349.5 108.75L349.5 114L328.5 114C319.801 114 312.75 121.051 312.75 129.75L312.75 150L308.25 150L308.25 129C308.25 120.301 301.198 113.25 292.5 113.25C283.801 113.25 276.75 120.301 276.75 129L276.75 150L272.25 150L272.25 129C272.25 120.301 265.198 113.25 256.5 113.25C247.801 113.25 240.75 120.301 240.75 129L240.75 150L236.25 150L236.25 129.75C236.25 121.051 229.198 114 220.5 114L219.75 114L199.5 114L199.5 108.75L220.5 108.75C229.198 108.75 236.25 101.698 236.25 93C236.25 84.3015 229.198 77.25 220.5 77.25L199.5 77.25L199.5 72.75L220.5 72.75C229.198 72.75 236.25 65.6985 236.25 57C236.25 48.3015 229.198 41.25 220.5 41.25L199.5 41.25L199.5 36.75L220.125 36.75C228.905 36.75 236.047 29.7324 236.245 21L236.25 21L236.25 20.625L236.25 -4.95031e-06L240.75 -4.75361e-06L240.75 21C240.75 29.6985 247.801 36.75 256.5 36.75C265.198 36.75 272.25 29.6985 272.25 21L272.25 -3.3767e-06L276.75 -3.18e-06L276.75 21C276.75 29.6985 283.801 36.75 292.5 36.75C301.198 36.75 308.25 29.6985 308.25 21L308.25 -1.80309e-06L312.75 -1.60639e-06ZM276.75 57C276.75 65.6985 283.801 72.75 292.5 72.75C301.198 72.75 308.25 65.6985 308.25 57C308.25 48.3015 301.198 41.25 292.5 41.25C283.801 41.25 276.75 48.3015 276.75 57ZM276.75 93C276.75 101.698 283.801 108.75 292.5 108.75C301.198 108.75 308.25 101.698 308.25 93C308.25 84.3015 301.198 77.25 292.5 77.25C283.801 77.25 276.75 84.3015 276.75 93ZM256.5 72.75C247.801 72.75 240.75 65.6985 240.75 57C240.75 48.3015 247.801 41.25 256.5 41.25C265.198 41.25 272.25 48.3015 272.25 57C272.25 65.6985 265.198 72.75 256.5 72.75ZM240.75 93C240.75 101.698 247.801 108.75 256.5 108.75C265.198 108.75 272.25 101.698 272.25 93C272.25 84.3015 265.198 77.25 256.5 77.25C247.801 77.25 240.75 84.3015 240.75 93Z" fill="#DEBAFC"/>
</g>
</g>
<path d="M38.208 79.768C34.0693 79.768 30.5067 78.7867 27.52 76.824C24.5333 74.8613 22.2293 72.152 20.608 68.696C19.0293 65.1973 18.24 61.1653 18.24 56.6C18.24 52.0347 19.0293 48.024 20.608 44.568C22.2293 41.0693 24.512 38.3387 27.456 36.376C30.4427 34.4133 34.0267 33.432 38.208 33.432C42.3467 33.432 45.888 34.4133 48.832 36.376C51.8187 38.3387 54.1013 41.0693 55.68 44.568C57.3013 48.024 58.112 52.0347 58.112 56.6C58.112 61.1653 57.3013 65.1973 55.68 68.696C54.1013 72.152 51.8187 74.8613 48.832 76.824C45.888 78.7867 42.3467 79.768 38.208 79.768ZM38.208 72.024C40.384 72.024 42.304 71.4053 43.968 70.168C45.6747 68.888 46.976 67.096 47.872 64.792C48.8107 62.488 49.28 59.7573 49.28 56.6C49.28 53.4 48.8107 50.6693 47.872 48.408C46.976 46.104 45.6747 44.3333 43.968 43.096C42.304 41.8587 40.384 41.24 38.208 41.24C36.032 41.24 34.0907 41.8587 32.384 43.096C30.72 44.3333 29.4187 46.104 28.48 48.408C27.5413 50.6693 27.072 53.4 27.072 56.6C27.072 59.7573 27.5413 62.488 28.48 64.792C29.4187 67.096 30.72 68.888 32.384 70.168C34.0907 71.4053 36.032 72.024 38.208 72.024ZM81.583 79.768C77.4443 79.768 73.8817 78.7867 70.895 76.824C67.9083 74.8613 65.6043 72.152 63.983 68.696C62.4043 65.1973 61.615 61.1653 61.615 56.6C61.615 52.0347 62.4043 48.024 63.983 44.568C65.6043 41.0693 67.887 38.3387 70.831 36.376C73.8177 34.4133 77.4017 33.432 81.583 33.432C85.7217 33.432 89.263 34.4133 92.207 36.376C95.1937 38.3387 97.4763 41.0693 99.055 44.568C100.676 48.024 101.487 52.0347 101.487 56.6C101.487 61.1653 100.676 65.1973 99.055 68.696C97.4763 72.152 95.1937 74.8613 92.207 76.824C89.263 78.7867 85.7217 79.768 81.583 79.768ZM81.583 72.024C83.759 72.024 85.679 71.4053 87.343 70.168C89.0497 68.888 90.351 67.096 91.247 64.792C92.1857 62.488 92.655 59.7573 92.655 56.6C92.655 53.4 92.1857 50.6693 91.247 48.408C90.351 46.104 89.0497 44.3333 87.343 43.096C85.679 41.8587 83.759 41.24 81.583 41.24C79.407 41.24 77.4657 41.8587 75.759 43.096C74.095 44.3333 72.7937 46.104 71.855 48.408C70.9163 50.6693 70.447 53.4 70.447 56.6C70.447 59.7573 70.9163 62.488 71.855 64.792C72.7937 67.096 74.095 68.888 75.759 70.168C77.4657 71.4053 79.407 72.024 81.583 72.024Z" fill="#12131A"/>
<path d="M20.76 118V105.38H16.58V104H26.62V105.38H22.44V118H20.76ZM30.6945 118.24C29.7612 118.24 28.9212 118.027 28.1745 117.6C27.4279 117.173 26.8345 116.567 26.3945 115.78C25.9679 114.993 25.7545 114.073 25.7545 113.02C25.7545 111.953 25.9745 111.027 26.4145 110.24C26.8545 109.453 27.4479 108.847 28.1945 108.42C28.9545 107.993 29.8012 107.78 30.7345 107.78C31.6812 107.78 32.5279 107.993 33.2745 108.42C34.0212 108.847 34.6079 109.453 35.0345 110.24C35.4612 111.027 35.6745 111.953 35.6745 113.02C35.6745 114.073 35.4545 114.993 35.0145 115.78C34.5879 116.567 33.9945 117.173 33.2345 117.6C32.4879 118.027 31.6412 118.24 30.6945 118.24ZM30.6945 116.8C31.2812 116.8 31.8212 116.66 32.3145 116.38C32.8079 116.1 33.2012 115.68 33.4945 115.12C33.8012 114.547 33.9545 113.84 33.9545 113C33.9545 112.16 33.8079 111.46 33.5145 110.9C33.2212 110.34 32.8279 109.92 32.3345 109.64C31.8412 109.36 31.3079 109.22 30.7345 109.22C30.1745 109.22 29.6412 109.36 29.1345 109.64C28.6412 109.92 28.2412 110.34 27.9345 110.9C27.6279 111.46 27.4745 112.167 27.4745 113.02C27.4745 113.847 27.6279 114.547 27.9345 115.12C28.2412 115.68 28.6345 116.1 29.1145 116.38C29.6079 116.66 30.1345 116.8 30.6945 116.8ZM40.9794 118C40.3794 118 39.8594 117.907 39.4194 117.72C38.9794 117.533 38.6394 117.22 38.3994 116.78C38.1727 116.327 38.0594 115.72 38.0594 114.96V109.44H36.3194V108.02H38.0594L38.2794 105.62H39.7394V108.02H42.6594V109.44H39.7394V114.96C39.7394 115.587 39.866 116.013 40.1194 116.24C40.3727 116.453 40.8194 116.56 41.4594 116.56H42.5194V118H40.9794ZM47.5128 118.24C46.6861 118.24 45.9995 118.1 45.4528 117.82C44.9195 117.54 44.5195 117.167 44.2528 116.7C43.9861 116.22 43.8528 115.707 43.8528 115.16C43.8528 114.48 44.0261 113.907 44.3728 113.44C44.7328 112.973 45.2328 112.613 45.8728 112.36C46.5128 112.107 47.2728 111.98 48.1528 111.98H50.8328C50.8328 111.367 50.7328 110.853 50.5328 110.44C50.3461 110.027 50.0661 109.72 49.6928 109.52C49.3195 109.307 48.8661 109.2 48.3328 109.2C47.6928 109.2 47.1328 109.367 46.6528 109.7C46.1728 110.02 45.8795 110.487 45.7728 111.1H44.0528C44.1328 110.38 44.3795 109.78 44.7928 109.3C45.2061 108.807 45.7261 108.433 46.3528 108.18C46.9795 107.913 47.6395 107.78 48.3328 107.78C49.2528 107.78 50.0195 107.953 50.6328 108.3C51.2595 108.633 51.7261 109.107 52.0328 109.72C52.3528 110.32 52.5128 111.027 52.5128 111.84V118H51.0128L50.9128 116.22C50.7795 116.5 50.6061 116.767 50.3928 117.02C50.1928 117.26 49.9528 117.473 49.6728 117.66C49.4061 117.833 49.0928 117.973 48.7328 118.08C48.3728 118.187 47.9661 118.24 47.5128 118.24ZM47.7728 116.82C48.2528 116.82 48.6795 116.727 49.0528 116.54C49.4395 116.34 49.7661 116.073 50.0328 115.74C50.2995 115.407 50.4995 115.033 50.6328 114.62C50.7661 114.207 50.8328 113.773 50.8328 113.32V113.28H48.2928C47.6395 113.28 47.1128 113.36 46.7128 113.52C46.3261 113.68 46.0461 113.893 45.8728 114.16C45.6995 114.427 45.6128 114.733 45.6128 115.08C45.6128 115.427 45.6928 115.733 45.8528 116C46.0128 116.267 46.2528 116.473 46.5728 116.62C46.9061 116.753 47.3061 116.82 47.7728 116.82ZM54.4722 118V103.6H56.1522V118H54.4722ZM69.2188 118.24C67.8454 118.24 66.6588 117.94 65.6588 117.34C64.6721 116.727 63.9054 115.88 63.3588 114.8C62.8254 113.707 62.5588 112.44 62.5588 111C62.5588 109.56 62.8254 108.3 63.3588 107.22C63.9054 106.127 64.6721 105.28 65.6588 104.68C66.6588 104.067 67.8454 103.76 69.2188 103.76C70.8321 103.76 72.1388 104.14 73.1388 104.9C74.1388 105.66 74.7788 106.733 75.0588 108.12H73.1988C72.9854 107.253 72.5521 106.56 71.8988 106.04C71.2454 105.507 70.3521 105.24 69.2188 105.24C68.2188 105.24 67.3454 105.473 66.5988 105.94C65.8654 106.393 65.2921 107.053 64.8788 107.92C64.4788 108.773 64.2788 109.8 64.2788 111C64.2788 112.2 64.4788 113.233 64.8788 114.1C65.2921 114.953 65.8654 115.613 66.5988 116.08C67.3454 116.533 68.2188 116.76 69.2188 116.76C70.3521 116.76 71.2454 116.507 71.8988 116C72.5521 115.48 72.9854 114.793 73.1988 113.94H75.0588C74.7788 115.287 74.1388 116.34 73.1388 117.1C72.1388 117.86 70.8321 118.24 69.2188 118.24ZM76.7737 118V103.6H78.4537V109.72C78.7871 109.107 79.2537 108.633 79.8537 108.3C80.4671 107.953 81.1404 107.78 81.8737 107.78C82.6337 107.78 83.3004 107.94 83.8737 108.26C84.4471 108.567 84.8871 109.04 85.1937 109.68C85.5137 110.32 85.6737 111.133 85.6737 112.12V118H84.0137V112.3C84.0137 111.273 83.8004 110.507 83.3737 110C82.9471 109.48 82.3271 109.22 81.5137 109.22C80.9404 109.22 80.4204 109.36 79.9537 109.64C79.4871 109.92 79.1204 110.32 78.8537 110.84C78.5871 111.36 78.4537 112.007 78.4537 112.78V118H76.7737ZM90.9386 118.24C90.1119 118.24 89.4253 118.1 88.8786 117.82C88.3453 117.54 87.9453 117.167 87.6786 116.7C87.4119 116.22 87.2786 115.707 87.2786 115.16C87.2786 114.48 87.4519 113.907 87.7986 113.44C88.1586 112.973 88.6586 112.613 89.2986 112.36C89.9386 112.107 90.6986 111.98 91.5786 111.98H94.2586C94.2586 111.367 94.1586 110.853 93.9586 110.44C93.7719 110.027 93.4919 109.72 93.1186 109.52C92.7453 109.307 92.2919 109.2 91.7586 109.2C91.1186 109.2 90.5586 109.367 90.0786 109.7C89.5986 110.02 89.3053 110.487 89.1986 111.1H87.4786C87.5586 110.38 87.8053 109.78 88.2186 109.3C88.6319 108.807 89.1519 108.433 89.7786 108.18C90.4053 107.913 91.0653 107.78 91.7586 107.78C92.6786 107.78 93.4453 107.953 94.0586 108.3C94.6853 108.633 95.1519 109.107 95.4586 109.72C95.7786 110.32 95.9386 111.027 95.9386 111.84V118H94.4386L94.3386 116.22C94.2053 116.5 94.0319 116.767 93.8186 117.02C93.6186 117.26 93.3786 117.473 93.0986 117.66C92.8319 117.833 92.5186 117.973 92.1586 118.08C91.7986 118.187 91.3919 118.24 90.9386 118.24ZM91.1986 116.82C91.6786 116.82 92.1053 116.727 92.4786 116.54C92.8653 116.34 93.1919 116.073 93.4586 115.74C93.7253 115.407 93.9253 115.033 94.0586 114.62C94.1919 114.207 94.2586 113.773 94.2586 113.32V113.28H91.7186C91.0653 113.28 90.5386 113.36 90.1386 113.52C89.7519 113.68 89.4719 113.893 89.2986 114.16C89.1253 114.427 89.0386 114.733 89.0386 115.08C89.0386 115.427 89.1186 115.733 89.2786 116C89.4386 116.267 89.6786 116.473 89.9986 116.62C90.3319 116.753 90.7319 116.82 91.1986 116.82ZM97.898 118V108.02H99.418L99.558 109.94C99.7713 109.487 100.051 109.1 100.398 108.78C100.758 108.46 101.178 108.213 101.658 108.04C102.151 107.867 102.711 107.78 103.338 107.78V109.54H102.818C102.378 109.54 101.958 109.6 101.558 109.72C101.171 109.827 100.825 110.007 100.518 110.26C100.225 110.513 99.9913 110.86 99.818 111.3C99.658 111.727 99.578 112.267 99.578 112.92V118H97.898ZM107.922 118.24C107.096 118.24 106.409 118.1 105.862 117.82C105.329 117.54 104.929 117.167 104.662 116.7C104.396 116.22 104.262 115.707 104.262 115.16C104.262 114.48 104.436 113.907 104.782 113.44C105.142 112.973 105.642 112.613 106.282 112.36C106.922 112.107 107.682 111.98 108.562 111.98H111.242C111.242 111.367 111.142 110.853 110.942 110.44C110.756 110.027 110.476 109.72 110.102 109.52C109.729 109.307 109.276 109.2 108.742 109.2C108.102 109.2 107.542 109.367 107.062 109.7C106.582 110.02 106.289 110.487 106.182 111.1H104.462C104.542 110.38 104.789 109.78 105.202 109.3C105.616 108.807 106.136 108.433 106.762 108.18C107.389 107.913 108.049 107.78 108.742 107.78C109.662 107.78 110.429 107.953 111.042 108.3C111.669 108.633 112.136 109.107 112.442 109.72C112.762 110.32 112.922 111.027 112.922 111.84V118H111.422L111.322 116.22C111.189 116.5 111.016 116.767 110.802 117.02C110.602 117.26 110.362 117.473 110.082 117.66C109.816 117.833 109.502 117.973 109.142 118.08C108.782 118.187 108.376 118.24 107.922 118.24ZM108.182 116.82C108.662 116.82 109.089 116.727 109.462 116.54C109.849 116.34 110.176 116.073 110.442 115.74C110.709 115.407 110.909 115.033 111.042 114.62C111.176 114.207 111.242 113.773 111.242 113.32V113.28H108.702C108.049 113.28 107.522 113.36 107.122 113.52C106.736 113.68 106.456 113.893 106.282 114.16C106.109 114.427 106.022 114.733 106.022 115.08C106.022 115.427 106.102 115.733 106.262 116C106.422 116.267 106.662 116.473 106.982 116.62C107.316 116.753 107.716 116.82 108.182 116.82ZM119.442 118.24C118.495 118.24 117.642 118.02 116.882 117.58C116.135 117.14 115.542 116.533 115.102 115.76C114.675 114.973 114.462 114.06 114.462 113.02C114.462 111.967 114.675 111.053 115.102 110.28C115.542 109.493 116.135 108.88 116.882 108.44C117.642 108 118.495 107.78 119.442 107.78C120.628 107.78 121.622 108.087 122.422 108.7C123.222 109.313 123.728 110.14 123.942 111.18H122.222C122.088 110.553 121.762 110.073 121.242 109.74C120.722 109.393 120.115 109.22 119.422 109.22C118.862 109.22 118.335 109.36 117.842 109.64C117.348 109.92 116.948 110.347 116.642 110.92C116.335 111.48 116.182 112.173 116.182 113C116.182 113.627 116.268 114.18 116.442 114.66C116.628 115.127 116.868 115.527 117.162 115.86C117.468 116.18 117.815 116.42 118.202 116.58C118.602 116.74 119.008 116.82 119.422 116.82C119.888 116.82 120.315 116.747 120.702 116.6C121.088 116.44 121.415 116.213 121.682 115.92C121.948 115.613 122.128 115.253 122.222 114.84H123.942C123.728 115.853 123.222 116.673 122.422 117.3C121.622 117.927 120.628 118.24 119.442 118.24ZM129.374 118C128.774 118 128.254 117.907 127.814 117.72C127.374 117.533 127.034 117.22 126.794 116.78C126.567 116.327 126.454 115.72 126.454 114.96V109.44H124.714V108.02H126.454L126.674 105.62H128.134V108.02H131.054V109.44H128.134V114.96C128.134 115.587 128.261 116.013 128.514 116.24C128.767 116.453 129.214 116.56 129.854 116.56H130.914V118H129.374ZM136.794 118.24C135.847 118.24 135.007 118.027 134.274 117.6C133.541 117.16 132.961 116.547 132.534 115.76C132.121 114.973 131.914 114.053 131.914 113C131.914 111.947 132.121 111.033 132.534 110.26C132.947 109.473 133.521 108.867 134.254 108.44C135.001 108 135.861 107.78 136.834 107.78C137.807 107.78 138.641 108 139.334 108.44C140.027 108.867 140.554 109.433 140.914 110.14C141.287 110.847 141.474 111.62 141.474 112.46C141.474 112.593 141.474 112.733 141.474 112.88C141.474 113.027 141.467 113.193 141.454 113.38H133.174V112.08H139.814C139.787 111.173 139.487 110.467 138.914 109.96C138.354 109.453 137.647 109.2 136.794 109.2C136.221 109.2 135.687 109.327 135.194 109.58C134.701 109.833 134.301 110.207 133.994 110.7C133.701 111.193 133.554 111.807 133.554 112.54V113.1C133.554 113.927 133.707 114.62 134.014 115.18C134.321 115.727 134.721 116.14 135.214 116.42C135.707 116.687 136.234 116.82 136.794 116.82C137.487 116.82 138.061 116.667 138.514 116.36C138.981 116.04 139.321 115.607 139.534 115.06H141.194C141.021 115.66 140.734 116.2 140.334 116.68C139.947 117.16 139.454 117.54 138.854 117.82C138.267 118.1 137.581 118.24 136.794 118.24ZM143.121 118V108.02H144.641L144.781 109.94C144.994 109.487 145.274 109.1 145.621 108.78C145.981 108.46 146.401 108.213 146.881 108.04C147.374 107.867 147.934 107.78 148.561 107.78V109.54H148.041C147.601 109.54 147.181 109.6 146.781 109.72C146.394 109.827 146.047 110.007 145.741 110.26C145.447 110.513 145.214 110.86 145.041 111.3C144.881 111.727 144.801 112.267 144.801 112.92V118H143.121ZM153.645 118.24C152.845 118.24 152.132 118.107 151.505 117.84C150.878 117.56 150.378 117.173 150.005 116.68C149.632 116.173 149.398 115.58 149.305 114.9H151.025C151.105 115.247 151.252 115.567 151.465 115.86C151.692 116.153 151.985 116.387 152.345 116.56C152.718 116.733 153.158 116.82 153.665 116.82C154.145 116.82 154.532 116.753 154.825 116.62C155.132 116.473 155.358 116.287 155.505 116.06C155.665 115.82 155.745 115.56 155.745 115.28C155.745 114.88 155.645 114.573 155.445 114.36C155.258 114.147 154.978 113.98 154.605 113.86C154.232 113.74 153.785 113.627 153.265 113.52C152.838 113.44 152.412 113.333 151.985 113.2C151.572 113.067 151.198 112.9 150.865 112.7C150.532 112.487 150.265 112.22 150.065 111.9C149.865 111.58 149.765 111.193 149.765 110.74C149.765 110.167 149.912 109.66 150.205 109.22C150.498 108.767 150.912 108.413 151.445 108.16C151.992 107.907 152.638 107.78 153.385 107.78C154.438 107.78 155.298 108.04 155.965 108.56C156.645 109.08 157.038 109.833 157.145 110.82H155.485C155.432 110.313 155.218 109.92 154.845 109.64C154.485 109.347 153.992 109.2 153.365 109.2C152.738 109.2 152.265 109.327 151.945 109.58C151.625 109.833 151.465 110.167 151.465 110.58C151.465 110.833 151.552 111.06 151.725 111.26C151.912 111.46 152.178 111.633 152.525 111.78C152.885 111.913 153.318 112.027 153.825 112.12C154.465 112.253 155.058 112.42 155.605 112.62C156.152 112.807 156.598 113.093 156.945 113.48C157.292 113.867 157.465 114.42 157.465 115.14C157.478 115.753 157.325 116.293 157.005 116.76C156.685 117.227 156.238 117.593 155.665 117.86C155.105 118.113 154.432 118.24 153.645 118.24Z" fill="#12131A"/>
</g>
<defs>
<clipPath id="clip0_216_760">
<path d="M0 12C0 5.37258 5.37258 0 12 0H307.333C313.961 0 319.333 5.37258 319.333 12V138C319.333 144.627 313.961 150 307.333 150H12C5.3726 150 0 144.627 0 138V12Z" fill="white"/>
</clipPath>
<clipPath id="clip1_216_760">
<rect width="150" height="150" fill="white" transform="translate(349.5) rotate(90)"/>
</clipPath>
</defs>
</svg>

